<?xml version="1.0" encoding="utf-8"?><!-- Uploaded to: SVG Repo, www.svgrepo.com, Generator: SVG Repo Mixer Tools -->
<svg width="800px" height="800px" viewBox="0 -0.05 87.686 87.686" xmlns="http://www.w3.org/2000/svg">
  <path id="Path_20" data-name="Path 20" d="M472.334,146.1l-3.381,3.162-2.83-2.828,4.464-4.464a2,2,0,0,0-2.827-2.829l-4.466,4.464-2.835-2.835,3.555-3.817a2,2,0,1,0-2.928-2.725v0l-3.456,3.714-2.926-2.926-6.778.675-.674,6.776,4.829,4.829-7.231,8.924-.049,0a8.711,8.711,0,0,0,0,17.422h.007a8.693,8.693,0,0,0,6.151-2.551l-1.412-1.414,1.414,1.414a8.7,8.7,0,0,0,2.549-6.161c0-.017,0-.034,0-.05l8.925-7.229,4.828,4.828,6.778-.675.673-6.778-.67-.668-2.26-2.261,3.285-3.073a2,2,0,0,0-2.733-2.92Zm-24.2,22.159a4.711,4.711,0,1,1-3.331-8.042,4.782,4.782,0,0,1,.746.071c.143.024.284.059.424.094s.259.07.387.115.252.093.375.148a4.526,4.526,0,0,1,.446.235c.093.054.189.1.278.166a4.642,4.642,0,0,1,.642.524l.032.026c.008.009.014.019.023.028a4.881,4.881,0,0,1,.526.643c.064.094.116.193.172.29.083.141.161.285.229.432.056.128.107.258.152.389s.077.242.108.364c.038.148.076.3.1.448a4.919,4.919,0,0,1,.071.736,4.688,4.688,0,0,1-1.381,3.332Zm4.251-7.617c-.021-.038-.051-.072-.073-.111a8.6,8.6,0,0,0-.48-.732c-.05-.07-.1-.139-.152-.207a8.54,8.54,0,0,0-.717-.825,8.769,8.769,0,0,0-.822-.715c-.07-.055-.142-.1-.214-.157a8.577,8.577,0,0,0-.731-.479c-.037-.022-.071-.051-.109-.072l1.845-2.276,3.729,3.73Zm5.4-4.376-4.322-4.322,1.463-1.806,1.759,1.76,2.9,2.906Zm12.6,1.878-1.633.162-3.191-3.191h0l-7.3-7.3-6.842-6.842.161-1.631,1.634-.162,12.156,12.156,3.489,3.489h0l1.685,1.685Zm15.906-44.963,21.46-22.93,8.02.879-25.512,25.512a2,2,0,1,0,2.828,2.828l25.491-25.49.9,8L496.96,123.047a2,2,0,0,0,2.732,2.922l23.983-22.447L521.9,87.773,506.2,86.05l-22.829,24.394a2,2,0,1,0,2.922,2.732Zm28.575,43.035-.049,0-7.232-8.924,4.829-4.829-.676-6.776-6.778-.675-2.928,2.928L453.466,86.05l-15.705,1.724-1.772,15.749,51.893,48.565-2.93,2.931.1.942.578,5.834,6.78.675,4.827-4.827,8.924,7.23c0,.016,0,.032,0,.048a8.71,8.71,0,0,0,8.71,8.712h.008a8.711,8.711,0,0,0-.008-17.422ZM451.915,90.245,499.2,140.768,496.37,143.6,443.895,91.125ZM440.19,101.974l.9-8,52.452,52.452-2.829,2.83Zm53.915,53.135h0l-3.191,3.191-1.634-.162-.161-1.632,17.329-17.329,1.633.162.163,1.631-8.666,8.666Zm5.97-.31,4.665-4.666,1.463,1.806-4.323,4.323Zm9.448,3.25a8.7,8.7,0,0,0-.818.713h0l0,0a8.557,8.557,0,0,0-.708.812c-.059.075-.113.152-.168.228-.168.232-.324.469-.467.713-.024.04-.055.077-.078.118l-2.276-1.844,3.73-3.73,1.845,2.276c-.038.021-.071.049-.108.071a8.691,8.691,0,0,0-.729.478C509.669,157.941,509.6,157.993,509.523,158.049Zm8.671,10.2a4.678,4.678,0,0,1-7.97-4.068,4.413,4.413,0,0,1,.1-.442c.032-.126.068-.252.111-.375s.094-.255.149-.38a4.686,4.686,0,0,1,.233-.443c.055-.094.106-.19.168-.281a4.694,4.694,0,0,1,.55-.673l.005-.005a4.889,4.889,0,0,1,.669-.546c.09-.061.186-.111.279-.166a4.832,4.832,0,0,1,.445-.234c.124-.055.25-.1.377-.148s.255-.081.384-.114.282-.071.427-.1a4.757,4.757,0,0,1,.745-.071,4.709,4.709,0,0,1,3.33,8.041Z" transform="translate(-435.989 -86.05)" fill="#8D6C16"/>
</svg>